# xmcd
#
# Track frame offsets:
# 150
# 14904
# 32497
# 44738
# 60399
# 77614
# 96018
# 111549
# 128606
# 146284
#
# Disc length: 2173 seconds
#
#
# Revision: 0
# Processed by: cddbd v1.5.2PL0 Copyright (c) Steve Scherf et al.
# Submitted via: Nero 7, 11, 10, 0 
#
DISCID=82087b0a
DTITLE=Gumbo - Beat Of My Heart
DYEAR=2008
DGENRE=Blues
TTITLE0=Beat Of My Heart
TTITLE1=Baby Sweet Talk
TTITLE2=Dancin' Shoes
TTITLE3=Lay Your Burden Down
TTITLE4=Oh My Baby
TTITLE5=Good Thing
TTITLE6=Together Again
TTITLE7=Loser
TTITLE8=Our Loving Days Are Over
TTITLE9=Sinners and Saints
EXTD=
EXTT0=Beat Of My Heart
EXTT1=Baby Sweet Talk
EXTT2=Dancin' Shoes
EXTT3=Lay Your Burden Down
EXTT4=Oh My Baby
EXTT5=Good Thing
EXTT6=Together Again
EXTT7=Loser
EXTT8=Our Loving Days Are Over
EXTT9=Sinners and Saints
PLAYORDER=
